<?xml version="1.0" encoding="UTF-8"?>
<svg version="1.1" xmlns="http://www.w3.org/2000/svg" width="512" height="512">
<path d="M0 0 C9.27643174 7.15291122 16.06992071 15.90330553 20 27 C20 27.99 20 28.98 20 30 C20.57113525 29.83991455 21.14227051 29.6798291 21.73071289 29.51489258 C32.36954454 27.10098231 47.37313598 27.60710186 57 33 C59.11880501 35.68561909 60.02725348 37.14086636 59.91796875 40.5859375 C59.73430768 43.15648259 59.73430768 43.15648259 61.86328125 44.9140625 C63.07564453 45.76097656 63.07564453 45.76097656 64.3125 46.625 C70.0351265 50.69810936 70.0351265 50.69810936 72 53 C72 53.66 72 54.32 72 55 C72.60328125 54.94199219 73.2065625 54.88398437 73.828125 54.82421875 C80.33048505 54.45715004 80.33048505 54.45715004 83.3125 56.875 C90.79161518 70.72521329 92.41682493 86.30083739 88.375 101.5625 C83.45841417 116.31225748 73.72767819 127.71079623 60 135 C57.69 135.99 55.38 136.98 53 138 C52.67 149.22 52.34 160.44 52 172 C56.455 173.485 56.455 173.485 61 175 C67.79277169 179.21215827 71.53885535 185.00775578 73.75 192.5625 C74.61524244 200.99861375 73.42785281 208.47166516 68.19921875 215.37890625 C63.654435 220.17078504 59.17378345 223.73645714 52.33984375 224.16796875 C49.8836404 224.18524163 47.45219631 224.13321791 45 224 C45.03480469 224.680625 45.06960938 225.36125 45.10546875 226.0625 C45.28091464 232.34513391 44.79534427 238.22086224 43.625 244.375 C43.49891357 245.04015625 43.37282715 245.7053125 43.24291992 246.390625 C42.44122391 250.37559933 41.36279404 254.1723263 40 258 C41.01578125 258.09796875 42.0315625 258.1959375 43.078125 258.296875 C63.12832937 260.39853767 78.82395253 267.63122681 93 282 C93.60585938 282.60714844 94.21171875 283.21429688 94.8359375 283.83984375 C100.99571882 290.50479232 106.17408119 299.0732858 108 308 C111.63 308 115.26 308 119 308 C118.98889694 307.20788116 118.97779388 306.41576233 118.96635437 305.59963989 C118.86574683 298.09757597 118.78983121 290.59584381 118.74093914 283.09327888 C118.71495709 279.23702096 118.67977182 275.38132514 118.62280273 271.52539062 C118.56807019 267.79707268 118.53849402 264.06929188 118.52561378 260.34060287 C118.51644706 258.92532786 118.498548 257.51007889 118.47134972 256.09503555 C118.2859354 246.03928868 119.27559373 238.20853271 126.2109375 230.5625 C133.48224747 225.3124567 140.0055203 223.0627601 149 224 C156.09010815 225.32864037 161.24613368 228.60081246 166 234 C170.22791288 240.32964993 171.12943432 246.64813178 171.11352539 254.18896484 C171.11344986 255.38975677 171.11337433 256.59054871 171.11329651 257.82772827 C171.10813522 259.10918732 171.10297394 260.39064636 171.09765625 261.7109375 C171.09578895 263.04757636 171.09436652 264.38421592 171.09336853 265.72085571 C171.08956795 269.22249269 171.07975891 272.72408756 171.06866455 276.22570801 C171.05839732 279.80541413 171.05385957 283.38512712 171.04882812 286.96484375 C171.03813422 293.97657969 171.02108764 300.98828782 171 308 C172.15000488 307.98428955 173.30000977 307.9685791 174.48486328 307.95239258 C178.76750637 307.89793132 183.05011906 307.86359114 187.33300781 307.83520508 C189.18364619 307.82015529 191.03424911 307.79971067 192.88476562 307.77368164 C195.55087045 307.7371302 198.21650208 307.72023546 200.8828125 307.70703125 C201.70492218 307.69154739 202.52703186 307.67606354 203.37405396 307.66011047 C209.02224879 307.6584704 213.34901324 308.5253259 217.64453125 312.53515625 C221.38621697 317.42812988 222.12580997 319.53662146 222.14044189 325.69195557 C222.14489858 326.73559993 222.14489858 326.73559993 222.1494453 327.80032802 C222.15815109 330.14326455 222.15964213 332.48615011 222.16113281 334.82910156 C222.16575972 336.50437022 222.17078421 338.17963781 222.17617798 339.85490417 C222.18931771 344.41496013 222.19575019 348.97500135 222.20018864 353.53507328 C222.2031173 356.38313305 222.20722174 359.23118878 222.21169281 362.07924652 C222.22537291 370.98743969 222.23503662 379.89562363 222.2388947 388.80382657 C222.24337455 399.09173664 222.26091688 409.37951378 222.2898953 419.66738343 C222.31150729 427.61564985 222.32159875 435.56387887 222.32293582 443.51217437 C222.32398435 448.26091729 222.3299021 453.00953535 222.34775543 457.75824738 C222.36422739 462.22666263 222.36639588 466.69485906 222.35761642 471.16329384 C222.35684553 472.80236459 222.36119562 474.44144705 222.37107468 476.0804882 C222.38378347 478.32062256 222.37792372 480.55998069 222.36749268 482.80010986 C222.36895924 484.05299427 222.3704258 485.30587868 222.3719368 486.59672928 C221.82994101 491.55606216 220.2367344 494.82835689 216.625 498.25 C212.29332731 501.1377818 208.75387305 502.24881566 203.55522156 502.26742554 C202.47448364 502.27595551 201.39374573 502.28448547 200.28025818 502.29327393 C199.10455765 502.29236755 197.92885712 502.29146118 196.7175293 502.29052734 C195.4714389 502.29724457 194.22534851 502.30396179 192.9414978 502.31088257 C189.53013383 502.32661311 186.11901335 502.3332369 182.70762992 502.33451414 C180.57362375 502.3359379 178.43964294 502.34021177 176.30564308 502.34550858 C168.85291556 502.3640015 161.40025947 502.37218024 153.94750977 502.37060547 C147.01340399 502.36940472 140.07960981 502.39049558 133.14558285 502.4220928 C127.18190959 502.44829449 121.21833784 502.45897112 115.2546075 502.45769465 C111.69738954 502.45718609 108.14044853 502.46280966 104.58328819 502.48405075 C100.61228788 502.50711639 96.64171058 502.49788836 92.6706543 502.48583984 C91.50102646 502.49707886 90.33139862 502.50831787 89.12632751 502.51989746 C82.28850881 502.46723271 77.79387835 501.72595714 72 498 C66.39180866 490.95381088 67 487.74800593 67 478 C34.33 478 1.66 478 -32 478 C-32.66 479.65 -33.32 481.3 -34 483 C-37.48868651 485.32579101 -38.89718519 485.41865457 -43 485 C-46.1359157 483.22015595 -46.84102736 482.47691793 -48 479 C-81.66 478.505 -81.66 478.505 -116 478 C-116.66 479.65 -117.32 481.3 -118 483 C-120.44988842 485.44988842 -121.56604793 485.7658669 -125 486 C-128.25 484.875 -128.25 484.875 -131 483 C-131.671875 480.3828125 -131.671875 480.3828125 -132 478 C-135.77217873 478.02275892 -139.54131103 478.10000662 -143.3125 478.1875 C-144.38435547 478.19330078 -145.45621094 478.19910156 -146.56054688 478.20507812 C-147.58857422 478.23408203 -148.61660156 478.26308594 -149.67578125 478.29296875 C-150.62364502 478.3086792 -151.57150879 478.32438965 -152.5480957 478.34057617 C-155.23896689 478.77855539 -155.23896689 478.77855539 -156.66870117 481.45043945 C-157.32769409 482.71247192 -157.32769409 482.71247192 -158 484 C-160.9142689 485.66529651 -162.88021255 486.17379417 -166.21484375 485.65625 C-171.92302221 484.06061942 -174.68659235 481.86656748 -178 477 C-179.34049527 474.31900947 -179.1198052 472.26688794 -179.11352539 469.26513672 C-179.11344986 468.06404266 -179.11337433 466.86294861 -179.11329651 465.62545776 C-179.10813522 464.32335358 -179.10297394 463.02124939 -179.09765625 461.6796875 C-179.09579138 460.33733167 -179.0943678 458.99497516 -179.09336853 457.65261841 C-179.08954878 454.11804325 -179.07972312 450.58350913 -179.06866455 447.0489502 C-179.05843878 443.44279536 -179.05386841 439.8366339 -179.04882812 436.23046875 C-179.03810038 429.15362904 -179.02103045 422.0768172 -179 415 C-181.97 415 -184.94 415 -188 415 C-187.99111755 415.88425659 -187.98223511 416.76851318 -187.9730835 417.67956543 C-187.89274808 426.03578961 -187.83193954 434.39188303 -187.79275131 442.74840546 C-187.77192647 447.04402721 -187.74370305 451.33932835 -187.69824219 455.63476562 C-187.65460102 459.78450141 -187.63082455 463.9339299 -187.62049103 468.08387756 C-187.61313227 469.66265191 -187.59876248 471.24141051 -187.57707977 472.8200531 C-187.35281651 489.83319472 -187.35281651 489.83319472 -193.8515625 497.05859375 C-194.43679687 497.51363281 -195.02203125 497.96867187 -195.625 498.4375 C-196.21539062 498.91058594 -196.80578125 499.38367188 -197.4140625 499.87109375 C-201.97526071 503.11785799 -207.2805559 502.26481972 -212.6875 502.3125 C-213.76451172 502.34150391 -214.84152344 502.37050781 -215.95117188 502.40039062 C-223.53741027 502.46085727 -228.03126635 501.63948893 -233.7421875 496.40234375 C-236.84853103 492.38552022 -238.12274468 489.62588405 -238.13422108 484.59103584 C-238.13867892 483.68391354 -238.14313676 482.77679123 -238.14772969 481.84218037 C-238.14754533 480.84424895 -238.14736097 479.84631752 -238.14717102 478.81814575 C-238.15084771 477.75894767 -238.1545244 476.69974958 -238.1583125 475.60845459 C-238.16936998 472.04121098 -238.17319674 468.47399648 -238.17700195 464.90673828 C-238.18326522 462.35599169 -238.18991189 459.80524601 -238.19691467 457.25450134 C-238.21616016 449.58487696 -238.22674755 441.91525768 -238.23564246 434.2456153 C-238.24002711 430.63109776 -238.24539364 427.01658167 -238.25063133 423.40206528 C-238.26764729 411.38026038 -238.28213879 399.3584564 -238.28938007 387.33664131 C-238.29128989 384.21661503 -238.29321023 381.09658875 -238.29516602 377.9765625 C-238.29564976 377.20111858 -238.2961335 376.42567467 -238.2966319 375.62673245 C-238.30492211 363.08089862 -238.33024027 350.53516045 -238.36274669 337.98936833 C-238.39587207 325.09915722 -238.41383396 312.20899461 -238.41702431 299.31874073 C-238.41918486 292.08541046 -238.42786595 284.85221949 -238.45348549 277.61893082 C-238.47755356 270.80797938 -238.48098382 263.9972817 -238.47072411 257.18629646 C-238.47022951 254.69228215 -238.47652716 252.19825538 -238.49028015 249.70427895 C-238.60376318 227.89695591 -235.82856123 210.92075522 -219.91796875 194.73046875 C-209.16486265 184.6683253 -195.24746993 178.9684813 -180.5625 178.6875 C-179.28503906 178.65011719 -178.00757813 178.61273438 -176.69140625 178.57421875 C-171.62141834 179.15901101 -168.577366 181.2594582 -165.1875 185 C-162.67462968 189.23220264 -162.82668402 193.6254052 -162.796875 198.43359375 C-162.79117493 199.14854507 -162.78547485 199.8634964 -162.77960205 200.60011292 C-162.77017886 202.10880057 -162.76362875 203.61750856 -162.75976562 205.1262207 C-162.75004728 207.42631015 -162.7189951 209.72551013 -162.6875 212.02539062 C-162.68097029 213.49478639 -162.67571969 214.96418851 -162.671875 216.43359375 C-162.6533548 217.45881386 -162.6533548 217.45881386 -162.63446045 218.50474548 C-162.65444251 222.81527203 -163.16145399 225.69003878 -166 229 C-167.65 229.33 -169.3 229.66 -171 230 C-171 235.94 -171 241.88 -171 248 C-169.35 248.33 -167.7 248.66 -166 249 C-162.80026105 252.81309903 -162.59184236 256.18340899 -162.48828125 261.05078125 C-162.47033005 261.70958786 -162.45237885 262.36839447 -162.43388367 263.04716492 C-162.38003344 265.13554631 -162.34596892 267.2237026 -162.3125 269.3125 C-162.2793043 270.7350572 -162.24481256 272.15758479 -162.20898438 273.58007812 C-162.12432399 277.05316915 -162.0573923 280.52633913 -162 284 C-161.3412085 283.32235596 -160.68241699 282.64471191 -160.00366211 281.9465332 C-158.68507202 280.60594849 -158.68507202 280.60594849 -157.33984375 279.23828125 C-156.47480225 278.35438721 -155.60976074 277.47049316 -154.71850586 276.55981445 C-141.73416542 264.33342833 -124.45851652 258.88358984 -107 258 C-107.45375 256.7625 -107.9075 255.525 -108.375 254.25 C-111.67093146 244.25286192 -112.30398206 234.47049321 -112 224 C-112.6290625 224.04640625 -113.258125 224.0928125 -113.90625 224.140625 C-120.35914852 224.41273518 -124.57483106 223.49108405 -130 220 C-130.886875 219.443125 -131.77375 218.88625 -132.6875 218.3125 C-137.93962142 213.06037858 -141.04880734 206.36253017 -141.3125 198.9375 C-141.19085724 191.55378462 -138.85226487 184.53591906 -133.8125 179.0625 C-129.90142599 175.54084028 -124.42101314 172 -119 172 C-119 160.78 -119 149.56 -119 138 C-120.65 137.67 -122.3 137.34 -124 137 C-124.23976563 137.60457031 -124.47953125 138.20914063 -124.7265625 138.83203125 C-126.2789006 141.47481545 -127.68190437 142.26937489 -130.375 143.6875 C-131.14585937 144.10386719 -131.91671875 144.52023438 -132.7109375 144.94921875 C-143.52410557 149.91294266 -158.63431725 147.94834671 -169.53417969 144.19628906 C-182.44849576 139.3757379 -193.42636551 132.43602328 -200 120 C-204.13282024 110.07742237 -200.46726491 100.47127591 -196.875 90.9375 C-196.50890625 89.90044922 -196.1428125 88.86339844 -195.765625 87.79492188 C-192.61671743 79.34963745 -188.72883733 72.46957159 -180.3125 68.5625 C-172.18213022 65.7533768 -163.51386722 65.83627178 -155 66 C-154.67128906 65.26136719 -154.34257812 64.52273437 -154.00390625 63.76171875 C-146.96937716 48.7585361 -136.75679508 37.42472483 -121 31.5 C-114.20212471 29.26167521 -108.05101577 28.84422776 -100.9375 28.875 C-100.03966797 28.87113281 -99.14183594 28.86726563 -98.21679688 28.86328125 C-97.34990234 28.86457031 -96.48300781 28.86585937 -95.58984375 28.8671875 C-94.80472412 28.86831543 -94.01960449 28.86944336 -93.21069336 28.87060547 C-91.0207606 28.99878486 -89.10406629 29.39609669 -87 30 C-86.8865625 29.11828125 -86.773125 28.2365625 -86.65625 27.328125 C-84.38078064 15.78824467 -75.36945082 6.01132541 -66.1875 -0.8125 C-46.29257752 -13.96180033 -19.44531346 -14.14204615 0 0 Z " fill="#020101" transform="translate(264,10)"/>
<path d="M0 0 C19.63244239 -0.43359995 35.9174393 3.26767587 50.6875 17.25 C61 27.90625 61 27.90625 61 34 C60.29875 34.01417969 59.5975 34.02835937 58.875 34.04296875 C52.2230824 34.37737222 46.98768342 35.3416919 42 40 C39.37207229 43.71870434 38.62481908 46.23487003 38.62768555 50.76831055 C38.62145676 51.90266037 38.61522797 53.03701019 38.60881042 54.20573425 C38.61802017 55.42045914 38.62722992 56.63518402 38.63671875 57.88671875 C38.63622025 59.14007523 38.63572174 60.3934317 38.63520813 61.68476868 C38.63754647 64.33028107 38.64567706 66.97498895 38.66381836 69.62036133 C38.68657485 73.01342614 38.68703448 76.40604644 38.68030071 79.79916668 C38.67616185 83.0367177 38.68812449 86.27418936 38.69921875 89.51171875 C38.69830734 90.73251633 38.69739594 91.9533139 38.69645691 93.21110535 C38.70598892 94.33599869 38.71552094 95.46089203 38.7253418 96.61987305 C38.72994919 97.61294968 38.73455658 98.60602631 38.73930359 99.62919617 C38.7704396 102.1874941 38.7704396 102.1874941 41 104 C45.06095958 104.47213673 45.06095958 104.47213673 49 104 C51.80497667 100.9989943 52.38213646 98.92337366 52.43237305 94.86425781 C52.45216721 93.84350159 52.47196136 92.82274536 52.49235535 91.77105713 C52.49874527 90.67613953 52.50513519 89.58122192 52.51171875 88.453125 C52.53864555 86.76361725 52.53864555 86.76361725 52.56611633 85.03997803 C52.62028795 81.44335674 52.65413788 77.84686869 52.6875 74.25 C52.72066693 71.81117935 52.75515599 69.37237629 52.79101562 66.93359375 C52.87601878 60.95582519 52.94279787 54.97809663 53 49 C59.6 49 66.2 49 73 49 C73.0093457 50.40282227 73.01869141 51.80564453 73.02832031 53.25097656 C73.06818564 58.45458762 73.13393537 63.65760531 73.20751953 68.86083984 C73.23574911 71.11304096 73.2569537 73.36534152 73.27099609 75.61767578 C73.2923976 78.85501083 73.33903495 82.09114774 73.390625 85.328125 C73.39246796 86.83925873 73.39246796 86.83925873 73.39434814 88.38092041 C73.43862921 93.88442741 73.43862921 93.88442741 75.90429688 98.65625 C78.39312959 100.25207191 79.38676703 100.32264659 82.25 99.75 C83.4875 99.5025 84.725 99.255 86 99 C86.84069555 96.05304966 87.14646768 93.38368081 87.20532227 90.32324219 C87.22526749 89.40258972 87.24521271 88.48193726 87.26576233 87.53338623 C87.28247482 86.54783752 87.29918732 85.56228882 87.31640625 84.546875 C87.3475779 83.02383759 87.3475779 83.02383759 87.37937927 81.47003174 C87.44470597 78.23008927 87.50368137 74.99006652 87.5625 71.75 C87.60570126 69.55207507 87.64931607 67.35415822 87.69335938 65.15625 C87.80037007 59.77091794 87.90216773 54.3855062 88 49 C99.45650016 48.97687759 110.91299481 48.95908543 122.36951351 48.94818783 C127.68865213 48.94295878 133.00777484 48.93586073 138.3269043 48.92456055 C143.45563985 48.91373245 148.58436006 48.90772333 153.71310616 48.90512276 C155.67441614 48.90326837 157.63572524 48.89964749 159.59702873 48.89426994 C162.33415447 48.88706054 165.07121597 48.88600901 167.80834961 48.88647461 C169.03725418 48.8810817 169.03725418 48.8810817 170.29098511 48.87557983 C175.88594784 48.88594784 175.88594784 48.88594784 177 50 C177.09685318 52.08827321 177.12186882 54.17988362 177.12025452 56.270401 C177.12153615 57.26398586 177.12153615 57.26398586 177.12284368 58.27764314 C177.12450033 60.5133287 177.11897414 62.74894042 177.11352539 64.98461914 C177.11324353 66.58080544 177.11340123 68.17699187 177.1139679 69.7731781 C177.11425592 74.12009895 177.10835835 78.46699244 177.10139394 82.81390691 C177.09516128 87.35163947 177.09455667 91.88937259 177.09336853 96.42710876 C177.09025495 105.0260784 177.08204122 113.62503539 177.07201904 122.22399944 C177.06085872 132.01101728 177.05534766 141.79803571 177.05032361 151.58505833 C177.03985862 171.72338086 177.02151282 191.86168604 177 212 C156.54 212 136.08 212 115 212 C114.98582031 205.34457031 114.97164062 198.68914062 114.95703125 191.83203125 C114.93697501 187.61648326 114.91545841 183.40104433 114.88867188 179.18554688 C114.84629127 172.49401582 114.80932958 165.80276115 114.80444336 159.11108398 C114.8001659 153.71622317 114.77174855 148.32198077 114.72656822 142.92731285 C114.71357562 140.86886891 114.70929175 138.81035102 114.71384621 136.75187111 C114.71873958 133.86881305 114.69271572 130.98757119 114.65942383 128.10473633 C114.66804947 127.25309402 114.67667511 126.40145172 114.68556213 125.52400208 C114.601796 121.19862365 114.36561798 119.47973052 111.65800476 115.92704773 C109.11688334 113.67738724 109.11688334 113.67738724 105.8125 114.0625 C102.90217203 114.79968558 102.90217203 114.79968558 101 117 C100.78196883 120.04180359 100.68853762 122.99516572 100.68115234 126.03955078 C100.67110672 126.97618561 100.6610611 127.91282043 100.65071106 128.87783813 C100.61974113 131.98365649 100.60280565 135.08938813 100.5859375 138.1953125 C100.56723695 140.34480544 100.54766439 142.49429095 100.5272522 144.64376831 C100.47580735 150.30889519 100.43624786 155.9740459 100.39910889 161.63928223 C100.35212381 168.43249118 100.2904733 175.22558074 100.23126221 182.01869202 C100.14289952 192.34574682 100.07324272 202.67277699 100 213 C84.49 213 68.98 213 53 213 C52.96261719 207.05484375 52.92523438 201.1096875 52.88671875 194.984375 C52.85644594 191.22002297 52.82530262 187.45571862 52.79101562 183.69140625 C52.73666632 177.71535624 52.68555744 171.73940055 52.65356445 165.76318359 C52.62757198 160.94549032 52.58719838 156.12811332 52.53681374 151.31061554 C52.52011755 149.47184429 52.50862043 147.6330183 52.50238609 145.79418182 C52.49277485 143.22019729 52.46475192 140.64702694 52.43237305 138.07324219 C52.43380814 137.31151199 52.43524323 136.5497818 52.4367218 135.76496887 C52.37967722 132.56256854 52.19110288 130.33704901 50.5962677 127.52423096 C49.11401526 125.85053056 49.11401526 125.85053056 47.02734375 125.5390625 C42.54117631 125.55205181 42.54117631 125.55205181 39 128 C38.78287967 130.43710136 38.68867196 132.76371148 38.68115234 135.20361328 C38.67099909 135.95718046 38.66084583 136.71074764 38.6503849 137.48715019 C38.61969758 139.93153261 38.60257798 142.37579823 38.5859375 144.8203125 C38.56900846 146.32740288 38.55119244 147.83448356 38.5324707 149.34155273 C38.46921741 154.93592382 38.42315977 160.53047862 38.375 166.125 C38.25125 178.62375 38.1275 191.1225 38 204 C5 204 -28 204 -62 204 C-58.62435275 192.74784249 -58.62435275 192.74784249 -57.21337891 188.90625 C-56.89475891 188.03460709 -56.57613892 187.16296417 -56.24786377 186.26490784 C-55.91083435 185.35248825 -55.57380493 184.44006866 -55.2265625 183.5 C-54.86600769 182.51728622 -54.50545288 181.53457245 -54.13397217 180.52207947 C-52.96761046 177.34682936 -51.79656621 174.17333312 -50.625 171 C-49.8185194 168.80932718 -49.01204155 166.61865334 -48.20556641 164.42797852 C-41.6180444 146.56173041 -34.87764271 128.75645304 -28 111 C-24.95236072 111.5284627 -22.87785025 112.06638573 -20.125 113.5625 C-15.79626396 115.55371858 -12.50846794 115.74830469 -7.91796875 114.37890625 C-2.97587685 112.31588087 -0.79782487 109.92014649 1.26171875 105.01171875 C1.50535156 104.34785156 1.74898438 103.68398438 2 103 C2.391875 101.989375 2.78375 100.97875 3.1875 99.9375 C7.57792472 84.06442602 5.23495349 68.1785544 -2.3046875 53.78125 C-4.75932096 49.75429373 -7.68213045 46.33750191 -11 43 C-9.89862403 40.77089935 -8.76799659 38.56507438 -7.59765625 36.37109375 C-1.09700262 23.9487251 0.46696507 13.7841171 0 0 Z " fill="#D9875C" transform="translate(294,284)"/>
<path d="M0 0 C10.30463345 5.6292383 16.5975915 13.77030034 20.44921875 24.78125 C21.31455715 27.99052678 22.09187211 31.1921967 22.7734375 34.4453125 C22.99644531 35.21617188 23.21945312 35.98703125 23.44921875 36.78125 C26.54600915 38.3296452 29.00369607 38.00001334 32.44921875 37.78125 C33.81538024 37.31502029 35.16937592 36.81217664 36.51171875 36.28125 C44.66275729 33.3261484 53.39890873 33.94257319 61.44921875 36.78125 C65.09952032 37.27349732 68.38283364 37.58103883 71.44921875 35.28125 C71.77921875 34.78625 72.10921875 34.29125 72.44921875 33.78125 C76.42405654 35.14143385 79.08516074 36.91296283 82.19921875 39.71875 C82.9778125 40.40839844 83.75640625 41.09804688 84.55859375 41.80859375 C86.44921875 43.78125 86.44921875 43.78125 87.44921875 46.78125 C86.45921875 47.77125 86.45921875 47.77125 85.44921875 48.78125 C84.89234135 53.88595946 85.49638359 57.232086 87.44921875 61.96875 C91.58862309 72.68685051 89.90605777 83.40393549 85.44921875 93.78125 C79.89914758 104.06182224 71.45931316 110.97529144 60.44921875 114.78125 C58.95414107 115.15565186 57.45413925 115.5111116 55.94921875 115.84375 C54.79421875 116.153125 53.63921875 116.4625 52.44921875 116.78125 C51.21162052 120.49404469 51.09312978 124.09431346 50.88671875 127.96875 C50.84353516 128.71833984 50.80035156 129.46792969 50.75585938 130.24023438 C50.6499919 132.08703375 50.54912115 133.93411834 50.44921875 135.78125 C44.63014994 136.82362233 38.88663124 137.77098461 32.9765625 137.99609375 C32.2249585 138.02517822 31.47335449 138.0542627 30.69897461 138.08422852 C29.224969 138.13141589 27.75033743 138.16245146 26.27563477 138.17553711 C21.42540597 138.33122347 18.79776289 139.23308111 15.44921875 142.78125 C14.78241507 145.82404372 14.78241507 145.82404372 15.44921875 148.78125 C17.0413854 150.89957797 17.90549949 151.68868585 20.54296875 152.13769531 C21.33703125 152.12834961 22.13109375 152.11900391 22.94921875 152.109375 C24.27336792 152.10260742 24.27336792 152.10260742 25.62426758 152.09570312 C27.02261841 152.06379883 27.02261841 152.06379883 28.44921875 152.03125 C29.39369873 152.02029297 30.33817871 152.00933594 31.3112793 151.99804688 C37.73184633 151.89638744 44.07019301 151.54292472 50.44921875 150.78125 C50.44921875 157.71125 50.44921875 164.64125 50.44921875 171.78125 C44.9380236 174.53684757 40.40746119 175.9805477 34.51171875 177.34375 C33.23844727 177.65602539 33.23844727 177.65602539 31.93945312 177.97460938 C17.74290507 181.32176298 4.0104055 182.06097272 -10.48828125 181.90625 C-12.15429141 181.89618544 -13.82030755 181.88706582 -15.48632812 181.87890625 C-19.50796454 181.85720177 -23.52930369 181.82287026 -27.55078125 181.78125 C-27.56012695 180.91846436 -27.56947266 180.05567871 -27.57910156 179.16674805 C-27.62313847 175.9626316 -27.68476019 172.75947272 -27.75830078 169.5559082 C-27.78650922 168.16996604 -27.80772458 166.78386304 -27.82177734 165.39770508 C-27.84320546 163.40417596 -27.89195139 161.41099954 -27.94140625 159.41796875 C-27.97282715 157.61912231 -27.97282715 157.61912231 -28.00488281 155.78393555 C-28.28071568 152.71829047 -28.28071568 152.71829047 -30.36230469 150.85864258 C-33.69019142 149.22031547 -36.04047299 149.87117008 -39.55078125 150.78125 C-41.87530749 154.26803936 -41.84851859 155.85092571 -41.96484375 159.98046875 C-42.00351563 161.18896484 -42.0421875 162.39746094 -42.08203125 163.64257812 C-42.11296875 164.90521484 -42.14390625 166.16785156 -42.17578125 167.46875 C-42.21445313 168.74298828 -42.253125 170.01722656 -42.29296875 171.33007812 C-42.38735523 174.48022694 -42.4701616 177.6307188 -42.55078125 180.78125 C-47.17078125 180.45125 -51.79078125 180.12125 -56.55078125 179.78125 C-56.5765625 178.67265625 -56.60234375 177.5640625 -56.62890625 176.421875 C-56.68519781 174.95829453 -56.74254492 173.49475438 -56.80078125 172.03125 C-56.81496094 171.30164063 -56.82914062 170.57203125 -56.84375 169.8203125 C-57.00326547 166.31097223 -57.2924982 164.13874478 -59.37109375 161.26171875 C-61.61155137 159.43416962 -61.61155137 159.43416962 -65.17578125 159.84375 C-68.80595049 160.4563345 -68.80595049 160.4563345 -70.55078125 163.78125 C-71.00993632 166.74967658 -71.00993632 166.74967658 -71.17578125 169.96875 C-71.25054687 171.05542969 -71.3253125 172.14210937 -71.40234375 173.26171875 C-71.45132813 174.09316406 -71.5003125 174.92460937 -71.55078125 175.78125 C-72.88517414 175.6916727 -74.21832044 175.5835397 -75.55078125 175.46875 C-76.29328125 175.41074219 -77.03578125 175.35273438 -77.80078125 175.29296875 C-80.55078125 174.78125 -80.55078125 174.78125 -88.55078125 171.78125 C-88.55078125 164.85125 -88.55078125 157.92125 -88.55078125 150.78125 C-83.66796875 150.9765625 -83.66796875 150.9765625 -78.78515625 151.171875 C-75.47824943 151.05249467 -75.47824943 151.05249467 -73.1484375 148.92578125 C-71.18390673 146.28879497 -71.13794836 145.00134657 -71.55078125 141.78125 C-71.88078125 140.79125 -72.21078125 139.80125 -72.55078125 138.78125 C-77.83078125 137.79125 -83.11078125 136.80125 -88.55078125 135.78125 C-88.86328125 127.96875 -88.86328125 127.96875 -88.9387207 125.52026367 C-89.14072161 121.47303711 -89.14072161 121.47303711 -90.8046875 117.859375 C-93.56311694 116.15618367 -96.47414988 115.52426681 -99.58984375 114.72265625 C-101.55078125 113.78125 -101.55078125 113.78125 -102.4453125 112.015625 C-102.58385278 109.0806235 -101.74854613 107.17121556 -100.61328125 104.46875 C-97.9895628 97.59059919 -97.80216285 92.10755461 -100.3203125 85.1796875 C-105.55515793 74.97589355 -115.41701415 68.45837328 -125.55078125 63.78125 C-124.35015574 55.55474186 -119.11855382 48.73021598 -112.92578125 43.40625 C-103.41299428 36.41197698 -93.31186994 33.34111669 -81.55078125 34.78125 C-78.97166038 35.44102511 -76.49630427 36.23472471 -73.984375 37.11328125 C-69.87189687 38.24206738 -65.77765302 38.02407029 -61.55078125 37.78125 C-61.33164063 36.75386719 -61.1125 35.72648437 -60.88671875 34.66796875 C-58.26459531 22.97242085 -54.74404497 11.12742971 -44.55078125 3.78125 C-29.88436327 -4.48105334 -15.82169094 -7.55952155 0 0 Z " fill="#FEF4F4" transform="translate(249.55078125,19.21875)"/>
<path d="M0 0 C-0.02320313 0.97839844 -0.04640625 1.95679688 -0.0703125 2.96484375 C-0.29262136 19.11399442 2.95403168 32.63903545 14 45 C14.53367187 45.61488281 15.06734375 46.22976563 15.6171875 46.86328125 C25.51517176 57.54268532 40.61731391 64.72279766 55.203125 65.31640625 C56.1828125 65.35830078 57.1625 65.40019531 58.171875 65.44335938 C59.18765625 65.48267578 60.2034375 65.52199219 61.25 65.5625 C62.796875 65.62727539 62.796875 65.62727539 64.375 65.69335938 C66.9165387 65.79925682 69.45817196 65.90133443 72 66 C72.34611328 67.55847656 72.34611328 67.55847656 72.69921875 69.1484375 C75.02241235 79.2357974 77.49965967 88.08930151 84.5 96 C85.92840576 97.83511353 85.92840576 97.83511353 87 100 C86.71807861 102.21640015 86.71807861 102.21640015 85.88769531 104.60693359 C85.58947876 105.48871277 85.29126221 106.37049194 84.98400879 107.2789917 C84.65928589 108.17692444 84.33456299 109.07485718 84 110 C83.56753967 111.24030975 83.56753967 111.24030975 83.12634277 112.50567627 C82.20605908 115.10902485 81.25539067 117.69955657 80.296875 120.2890625 C79.94183395 121.25514435 79.58679291 122.2212262 79.22099304 123.21658325 C78.06696622 126.35382525 76.90853076 129.48941877 75.75 132.625 C74.9478298 134.803649 74.14582972 136.98236064 73.34399414 139.16113281 C69.43541547 149.76927358 65.49796779 160.36610555 61.51171875 170.9453125 C61.16313812 171.87103058 60.8145575 172.79674866 60.45541382 173.7505188 C58.81273914 178.11031195 57.16496964 182.46807331 55.50878906 186.82275391 C54.92114869 188.37659914 54.33357935 189.93047124 53.74609375 191.484375 C53.34737312 192.52478439 53.34737312 192.52478439 52.94059753 193.58621216 C51.61706874 197.09734173 50.74257842 200.28710789 50 204 C27.23 204 4.46 204 -19 204 C-19.66 205.65 -20.32 207.3 -21 209 C-23.44988842 211.44988842 -24.56604793 211.7658669 -28 212 C-31.25 210.875 -31.25 210.875 -34 209 C-34.495 206.525 -34.495 206.525 -35 204 C-42.92 204 -50.84 204 -59 204 C-59.99 201.525 -59.99 201.525 -61 199 C-64.01696409 197.15725024 -64.01696409 197.15725024 -67 196 C-67.09370347 177.20579991 -67.1641061 158.41164765 -67.20724869 139.61726189 C-67.22781862 130.88945553 -67.25583184 122.16179485 -67.30175781 113.43408203 C-67.34179706 105.82140375 -67.36747322 98.20883105 -67.37635398 90.59605038 C-67.38154001 86.57017569 -67.39361078 82.54460287 -67.42292023 78.51882553 C-67.45036052 74.71847898 -67.45838827 70.91855451 -67.45243073 67.11811829 C-67.45403131 65.0811012 -67.47540263 63.04412856 -67.49768066 61.00723267 C-67.42301496 44.06468234 -62.02056649 29.59810193 -50.3515625 17.28515625 C-35.47418513 2.82790415 -20.03305357 -0.23476235 0 0 Z " fill="#FDF3F3" transform="translate(167,284)"/>
<path d="M0 0 C19.63244239 -0.43359995 35.9174393 3.26767587 50.6875 17.25 C61 27.90625 61 27.90625 61 34 C60.29875 34.01417969 59.5975 34.02835937 58.875 34.04296875 C52.2230824 34.37737222 46.98768342 35.3416919 42 40 C39.38063846 43.7105555 38.62269219 46.23018166 38.61181641 50.75244141 C38.59763168 52.4491246 38.59763168 52.4491246 38.5831604 54.18008423 C38.58923309 55.39167206 38.59530579 56.60325989 38.6015625 57.8515625 C38.59869232 59.1025473 38.59582214 60.3535321 38.59286499 61.64242554 C38.59082523 64.28374535 38.59483575 66.92422955 38.60888672 69.56542969 C38.62601373 72.94954417 38.61610878 76.33294666 38.59816933 79.71703529 C38.58472519 82.94940332 38.59413498 86.18168519 38.6015625 89.4140625 C38.59548981 90.62969879 38.58941711 91.84533508 38.5831604 93.09780884 C38.59261688 94.22262665 38.60207336 95.34744446 38.61181641 96.50634766 C38.61539658 97.99263168 38.61539658 97.99263168 38.61904907 99.50894165 C38.8039654 102.0309573 38.8039654 102.0309573 40.33676147 103.78085327 C42.09901826 105.20289505 42.09901826 105.20289505 45 106 C45.16216064 108.91889148 45.28091202 111.82879225 45.375 114.75 C45.42527344 115.575 45.47554688 116.4 45.52734375 117.25 C45.54667969 118.04921875 45.56601562 118.8484375 45.5859375 119.671875 C45.6173584 120.4050293 45.6487793 121.13818359 45.68115234 121.89355469 C45 124 45 124 42.0057373 125.66723633 C38.68520003 127.7340532 38.68520003 127.7340532 38.24050903 131.36627197 C38.20545013 132.72062307 38.20332158 134.07606709 38.22705078 135.43066406 C38.21641539 136.18447231 38.20577999 136.93828056 38.19482231 137.71493149 C38.16722324 140.14920186 38.18045672 142.5812824 38.1953125 145.015625 C38.18425627 146.5206928 38.17051853 148.02574338 38.15405273 149.53076172 C38.11187218 155.10368993 38.12157364 160.67691321 38.125 166.25 C38.08375 178.7075 38.0425 191.165 38 204 C5 204 -28 204 -62 204 C-58.62435275 192.74784249 -58.62435275 192.74784249 -57.21337891 188.90625 C-56.89475891 188.03460709 -56.57613892 187.16296417 -56.24786377 186.26490784 C-55.91083435 185.35248825 -55.57380493 184.44006866 -55.2265625 183.5 C-54.86600769 182.51728622 -54.50545288 181.53457245 -54.13397217 180.52207947 C-52.96761046 177.34682936 -51.79656621 174.17333312 -50.625 171 C-49.8185194 168.80932718 -49.01204155 166.61865334 -48.20556641 164.42797852 C-41.6180444 146.56173041 -34.87764271 128.75645304 -28 111 C-24.95236072 111.5284627 -22.87785025 112.06638573 -20.125 113.5625 C-15.79626396 115.55371858 -12.50846794 115.74830469 -7.91796875 114.37890625 C-2.97587685 112.31588087 -0.79782487 109.92014649 1.26171875 105.01171875 C1.50535156 104.34785156 1.74898438 103.68398438 2 103 C2.391875 101.989375 2.78375 100.97875 3.1875 99.9375 C7.57792472 84.06442602 5.23495349 68.1785544 -2.3046875 53.78125 C-4.75932096 49.75429373 -7.68213045 46.33750191 -11 43 C-9.89862403 40.77089935 -8.76799659 38.56507438 -7.59765625 36.37109375 C-1.09700262 23.9487251 0.46696507 13.7841171 0 0 Z " fill="#FCF2F2" transform="translate(294,284)"/>
<path d="M0 0 C1.02601318 0.21148682 1.02601318 0.21148682 2.07275391 0.42724609 C5.25596869 1.08080339 8.44046371 1.72791386 11.625 2.375 C12.70007813 2.59671875 13.77515625 2.8184375 14.8828125 3.046875 C18.25009012 3.72834785 21.62240539 4.37174559 25 5 C26.01892334 5.19851562 27.03784668 5.39703125 28.08764648 5.6015625 C38.8380327 7.44021755 49.60735964 7.30245132 60.48461914 7.26074219 C63.79527242 7.25005561 67.10537915 7.26066934 70.41601562 7.2734375 C86.4992142 7.2843531 101.79115309 6.10158319 117.53515625 2.68359375 C121.35350077 1.93025633 125.13448074 1.44455588 129 1 C128.90486316 5.30126825 128.79846866 9.60208359 128.68261719 13.90283203 C128.64485752 15.35913924 128.60992376 16.81552309 128.578125 18.27197266 C128.08309988 40.68732885 124.61638132 59.66270131 108.875 76.75 C96.29393066 88.64169568 79.58423277 94.79309713 62.42138672 94.52172852 C43.31570567 93.71390442 28.73118813 85.47853873 15.8125 71.66015625 C4.74103733 58.72248112 1.95662656 44.77627471 0.875 28.3125 C0.78863281 27.13494141 0.70226562 25.95738281 0.61328125 24.74414062 C0.04311941 16.47679396 -0.0995802 8.28491424 0 0 Z " fill="#FACEA5" transform="translate(166,208)"/>
<path d="M0 0 C5.40035677 3.66125883 12.02651286 8.22550659 14.375 14.5 C15.46749094 20.46519389 14.93155824 25.36942761 11.75 30.5625 C10.3265659 32.58192479 8.88087163 34.54416226 7.375 36.5 C6.86001953 37.17514648 6.34503906 37.85029297 5.81445312 38.54589844 C2.83238648 42.44171403 -0.181626 46.31104268 -3.21875 50.1640625 C-6.58317678 54.43387268 -9.85062801 58.76930223 -13.09765625 63.12890625 C-17.1948214 68.61412567 -21.36744048 74.04283157 -25.52612305 79.48144531 C-28.76447582 83.7220456 -31.98659515 87.97148654 -35.1484375 92.26953125 C-35.68621826 92.99817383 -36.22399902 93.72681641 -36.77807617 94.47753906 C-37.76826944 95.82300454 -38.75321322 97.17235673 -39.73168945 98.52636719 C-43.5180386 103.66296741 -47.35976452 107.57671841 -53.625 109.5 C-60.69200939 110.40846459 -66.82899633 109.82802021 -72.625 105.5 C-76.39869707 102.02292541 -79.30209559 98.8279227 -79.625 93.5 C-80.635625 93.5825 -81.64625 93.665 -82.6875 93.75 C-88.81930168 93.36067926 -92.73161415 90.68421969 -96.9375 86.4375 C-100.43596214 82.03620892 -101.7431714 77.08186085 -101.625 71.5 C-100.2475694 64.35443707 -97.52474465 59.24559007 -92.9375 53.6875 C-91.76742626 52.21417895 -90.59819475 50.74018876 -89.4296875 49.265625 C-88.8119043 48.49541016 -88.19412109 47.72519531 -87.55761719 46.93164062 C-84.15705291 42.6530125 -80.86678899 38.29060007 -77.5625 33.9375 C-76.88960938 33.05682861 -76.21671875 32.17615723 -75.5234375 31.26879883 C-72.3492254 27.11148834 -69.20051168 22.94010724 -66.1171875 18.71484375 C-65.57715088 17.97886963 -65.03711426 17.24289551 -64.48071289 16.48461914 C-63.48510958 15.12359902 -62.49674214 13.75724191 -61.51733398 12.38452148 C-58.31606079 8.01808972 -55.52191764 5.35690337 -50.30078125 3.8125 C-42.23679769 2.74618812 -36.77917212 5.46589476 -30.3359375 10.171875 C-29.77132812 10.61015625 -29.20671875 11.0484375 -28.625 11.5 C-27.94953125 10.72914062 -27.2740625 9.95828125 -26.578125 9.1640625 C-25.67740656 8.15075426 -24.77634687 7.13774929 -23.875 6.125 C-23.20984375 5.36316406 -23.20984375 5.36316406 -22.53125 4.5859375 C-16.25243645 -2.43156 -8.76917073 -3.62862237 0 0 Z " fill="#010100" transform="translate(456.625,103.5)"/>
<path d="M0 0 C0 63.03 0 126.06 0 191 C-6.27 191 -12.54 191 -19 191 C-19.09272518 169.93745498 -19.16404457 148.87495938 -19.20724869 127.81225109 C-19.22784523 118.03174565 -19.25591009 108.25136962 -19.30175781 98.47094727 C-19.34171476 89.94307897 -19.36745394 81.41530444 -19.37635398 72.88734514 C-19.38155376 68.37476732 -19.39371412 63.86245765 -19.42292023 59.34996605 C-19.45022956 55.09575154 -19.45841392 50.84191363 -19.45243073 46.58761978 C-19.45352407 45.03287644 -19.46138519 43.47811947 -19.4768219 41.92345238 C-19.60697007 28.13018633 -16.85332398 15.04065098 -6.87109375 4.8203125 C-1.46034137 0 -1.46034137 0 0 0 Z " fill="#CCBEBA" transform="translate(60,213)"/>
<path d="M0 0 C0.02505615 0.8878418 0.0501123 1.77568359 0.07592773 2.69042969 C0.17121797 5.99296037 0.27044207 9.29532459 0.37231445 12.59765625 C0.41555318 14.02534388 0.45723585 15.45307954 0.49731445 16.88085938 C0.55528602 18.93634496 0.61890175 20.99159128 0.68359375 23.046875 C0.72025146 24.28276367 0.75690918 25.51865234 0.79467773 26.79199219 C0.89631226 28.37995605 0.89631226 28.37995605 1 30 C1.04777588 30.7621582 1.09555176 31.52431641 1.14477539 32.30957031 C2.17631516 34.84072413 2.17631516 34.84072413 8 36 C8 42.27 8 48.54 8 55 C6.35 55.66 4.7 56.32 3 57 C0.30821209 59.69178791 0.74077522 61.05498149 0.7215271 64.82119751 C0.70478188 66.68064247 0.70478188 66.68064247 0.68769836 68.57765198 C0.68533317 69.95883149 0.68315756 71.34001133 0.68115234 72.72119141 C0.67185827 74.16974958 0.66169039 75.61830237 0.65071106 77.06684875 C0.62333809 81.00667587 0.60824015 84.9464671 0.59528303 88.88636446 C0.57968429 93.00105707 0.55288377 97.11567602 0.5272522 101.23031616 C0.48040655 109.02527633 0.44369052 116.82025027 0.41057932 124.61527956 C0.37239872 133.4882376 0.32297799 142.36112177 0.27259517 151.23401761 C0.1691893 169.48929106 0.07995714 187.74460955 0 206 C-3.3 206 -6.6 206 -10 206 C-10 138.35 -10 70.7 -10 1 C-6.41220825 0.10305206 -3.65381163 -0.08304117 0 0 Z " fill="#E4D8D3" transform="translate(85,204)"/>
<path d="M0 0 C11.45650016 -0.02312241 22.91299481 -0.04091457 34.36951351 -0.05181217 C39.68865213 -0.05704122 45.00777484 -0.06413927 50.3269043 -0.07543945 C55.45563985 -0.08626755 60.58436006 -0.09227667 65.71310616 -0.09487724 C67.67441614 -0.09673163 69.63572524 -0.10035251 71.59702873 -0.10573006 C74.33415447 -0.11293946 77.07121597 -0.11399099 79.80834961 -0.11352539 C81.03725418 -0.1189183 81.03725418 -0.1189183 82.29098511 -0.12442017 C87.88594784 -0.11405216 87.88594784 -0.11405216 89 1 C89.09685318 3.08827321 89.12186882 5.17988362 89.12025452 7.270401 C89.12110894 7.93279091 89.12196337 8.59518082 89.12284368 9.27764314 C89.12450033 11.5133287 89.11897414 13.74894042 89.11352539 15.98461914 C89.11324353 17.58080544 89.11340123 19.17699187 89.1139679 20.7731781 C89.11425592 25.12009895 89.10835835 29.46699244 89.10139394 33.81390691 C89.09516128 38.35163947 89.09455667 42.88937259 89.09336853 47.42710876 C89.09025495 56.0260784 89.08204122 64.62503539 89.07201904 73.22399944 C89.06085872 83.01101728 89.05534766 92.79803571 89.05032361 102.58505833 C89.03985862 122.72337929 89.02225868 142.86168885 89 163 C85.37 163 81.74 163 78 163 C78 109.54 78 56.08 78 1 C52.26 1 26.52 1 0 1 C0 0.67 0 0.34 0 0 Z " fill="#C26A3C" transform="translate(382,333)"/>
<path d="M0 0 C3.33172923 0.98717903 4.3533718 1.33317555 6.375 4 C6.7709341 6.18240929 6.7709341 6.18240929 6.80064392 8.76889038 C6.81896271 9.7502446 6.83728149 10.73159882 6.8561554 11.74269104 C6.86100449 12.8180864 6.86585358 13.89348175 6.87084961 15.00146484 C6.88746643 16.13503922 6.90408325 17.26861359 6.92120361 18.4365387 C6.97190524 22.19466392 7.00050607 25.95257121 7.02734375 29.7109375 C7.05433978 32.31784812 7.08206435 34.92475129 7.11048889 37.53164673 C7.1675367 43.00085984 7.21129691 48.47007065 7.24829102 53.93945312 C7.29129124 60.25803937 7.35990363 66.57597794 7.44128221 72.89417684 C7.51861924 78.97505903 7.57338199 85.05593609 7.61914253 91.13713455 C7.64123558 93.7231924 7.66963804 96.30920422 7.70442009 98.89512253 C7.75060315 102.51015902 7.77107964 106.12446079 7.78491211 109.73974609 C7.80393082 110.81109299 7.82294952 111.88243988 7.84254456 112.98625183 C7.83211573 120.2350651 7.83211573 120.2350651 5.49781799 124.14126587 C2.96323009 126.3605447 1.74936542 127 -1.625 127 C-7.26355422 124.72289157 -7.26355422 124.72289157 -8.625 122 C-8.727924 120.45302587 -8.76878958 118.90172541 -8.77890015 117.35136414 C-8.79180084 115.88139481 -8.79180084 115.88139481 -8.80496216 114.38172913 C-8.80922211 113.30273849 -8.81348206 112.22374786 -8.81787109 111.11206055 C-8.82604858 109.9786322 -8.83422607 108.84520386 -8.84265137 107.6774292 C-8.86753365 103.91386449 -8.8840277 100.15033753 -8.8984375 96.38671875 C-8.90376118 95.10398386 -8.90908485 93.82124897 -8.91456985 92.49964333 C-8.93580444 87.10979536 -8.95493457 81.71995972 -8.96619225 76.33008099 C-8.98243108 68.60621366 -9.01560695 60.88284942 -9.07259309 53.15917176 C-9.11596358 47.07336507 -9.13193733 40.98775575 -9.13832474 34.90180397 C-9.14505471 32.31298045 -9.16032163 29.72416474 -9.18421555 27.13544273 C-9.21572603 23.51527765 -9.21592438 19.89638845 -9.20849609 16.27612305 C-9.22490143 15.20320511 -9.24130676 14.13028717 -9.25820923 13.02485657 C-9.21769803 8.21113588 -9.19025738 5.78423665 -6.31509399 1.79524231 C-3.625 0 -3.625 0 0 0 Z " fill="#060505" transform="translate(140.625,369)"/>
<path d="M0 0 C1.17065931 3.51197793 0.54964897 4.60380381 -0.9934082 7.8359375 C-1.3049585 8.44695312 -1.61650879 9.05796875 -1.9375 9.6875 C-2.2574292 10.31527344 -2.5773584 10.94304687 -2.90698242 11.58984375 C-8.86914169 22.78280408 -18.48045414 29.38222991 -30.375 33.375 C-45.9811664 37.4254554 -62.14718756 36.09342565 -76.3125 28.25 C-85.21724487 22.49660964 -92.77183709 14.27142745 -96 4 C-96 3.01 -96 2.02 -96 1 C-93.5480058 2.18330068 -91.18998454 3.4597385 -88.8203125 4.8046875 C-69.3344655 15.80655786 -46.88414939 19.4945713 -25.0234375 13.65136719 C-15.87978737 10.70792383 -7.67471061 5.66960604 0 0 Z " fill="#E34447" transform="translate(278,300)"/>
<path d="M0 0 C2.87029869 1.79393668 4.49131638 2.98263276 6 6 C6.0913666 7.97106545 6.11751968 9.94527916 6.11352539 11.91845703 C6.11344986 13.15959259 6.11337433 14.40072815 6.11329651 15.67947388 C6.1081895 17.03892049 6.1029735 18.39836669 6.09765625 19.7578125 C6.09579142 21.14500884 6.09436782 22.53220584 6.09336853 23.91940308 C6.08954848 27.57234512 6.07972255 31.22524748 6.06866455 34.87817383 C6.05843944 38.60497501 6.05386855 42.33178259 6.04882812 46.05859375 C6.03809983 53.37241603 6.02050717 60.6861974 6 68 C-0.93 68 -7.86 68 -15 68 C-15.06784632 60.13295848 -15.1228566 52.26607758 -15.15543652 44.39882374 C-15.17107533 40.74550802 -15.19228048 37.09240329 -15.22631836 33.43920898 C-15.25897625 29.91194784 -15.27686644 26.38488932 -15.28463173 22.85748863 C-15.29285133 20.86055692 -15.31626061 18.86370642 -15.33988953 16.86689758 C-15.34011612 15.64600937 -15.34034271 14.42512115 -15.34057617 13.16723633 C-15.34723801 12.09468094 -15.35389984 11.02212555 -15.36076355 9.91706848 C-14.94385456 6.54601814 -14.01770275 4.71198156 -12 2 C-7.98141405 -0.6790573 -4.72358279 -0.69610694 0 0 Z " fill="#C46B3B" transform="translate(413,250)"/>
<path d="M0 0 C6.27 0 12.54 0 19 0 C19.04513106 9.22270492 19.08184692 18.44533685 19.10362434 27.66812706 C19.11407483 31.95034248 19.12825697 36.23247864 19.15087891 40.51464844 C19.17256238 44.64488126 19.18455909 48.77503769 19.18975449 52.90532303 C19.19345835 54.48343738 19.2006908 56.06154741 19.21146011 57.63962936 C19.22591549 59.84496951 19.22798048 62.04999142 19.22705078 64.25537109 C19.231492 65.51223724 19.23593323 66.76910339 19.24050903 68.0640564 C19 71 19 71 17 73 C14.45464859 73.19849071 12.04283241 73.27851775 9.5 73.25 C8.81035156 73.25773437 8.12070312 73.26546875 7.41015625 73.2734375 C2.25333293 73.25333293 2.25333293 73.25333293 0 71 C-0.24050903 68.0640564 -0.24050903 68.0640564 -0.22705078 64.25537109 C-0.22734283 63.56257553 -0.22763489 62.86977997 -0.22793579 62.1559906 C-0.22654031 59.86167966 -0.21096919 57.56769184 -0.1953125 55.2734375 C-0.19158314 53.68446022 -0.1887358 52.09548064 -0.18673706 50.50650024 C-0.17909453 46.32085846 -0.15944081 42.1353551 -0.1373291 37.94976807 C-0.11688396 33.68007276 -0.1077382 29.41035513 -0.09765625 25.140625 C-0.07619541 16.76034601 -0.04100831 8.38020616 0 0 Z " fill="#746E6E" transform="translate(41,424)"/>
<path d="M0 0 C3.82502165 1.55834215 6.14783821 4.07215896 9 7 C2.42238638 15.8075243 -4.19817682 24.57990324 -10.875 33.3125 C-16.04495531 40.078037 -21.15144605 46.88425987 -26.1875 53.75 C-27.32664198 55.2944043 -28.4659633 56.83867635 -29.60546875 58.3828125 C-31.94160807 61.55034456 -34.25055193 64.73601199 -36.55078125 67.9296875 C-37.69977022 69.4953428 -38.849482 71.06046796 -40 72.625 C-40.5158667 73.35428711 -41.0317334 74.08357422 -41.56323242 74.83496094 C-44.02648507 78.14817815 -45.22759527 79.75642393 -49.2578125 81.02734375 C-52 81 -52 81 -53.875 79.9375 C-55.58117263 76.99909158 -55.45949602 75.39170365 -55 72 C-53.21974218 68.96211111 -50.99884575 66.32658849 -48.75 63.625 C-47.44924597 62.01014064 -46.14978811 60.39423647 -44.8515625 58.77734375 C-44.19833008 57.97151855 -43.54509766 57.16569336 -42.87207031 56.33544922 C-40.20817988 53.01218685 -37.66092368 49.60880327 -35.125 46.1875 C-30.45803754 39.92643967 -25.73899932 33.70669742 -21 27.5 C-15.47557071 20.26448181 -9.98182404 13.00762982 -4.54101562 5.70898438 C-1.10037435 1.10037435 -1.10037435 1.10037435 0 0 Z " fill="#9FDF3E" transform="translate(447,117)"/>
<path d="M0 0 C6.85469857 2.94901245 13.42201537 7.56091692 17.33984375 14.0546875 C18.38330814 16.77333527 18.10153677 18.2360044 17.0625 20.9375 C12.93678185 24.20664048 9.01992492 24.44608287 3.9375 24.375 C2.80526001 24.36364014 2.80526001 24.36364014 1.65014648 24.35205078 C-4.80643969 24.16318512 -10.14619099 22.86946365 -15.9375 19.9375 C-17.26394531 19.26654297 -17.26394531 19.26654297 -18.6171875 18.58203125 C-24.3369897 15.41662143 -30.59072748 11.56533578 -32.51953125 4.9375 C-32.8125 3 -32.8125 3 -32.9375 -0.0625 C-23.85629558 -8.13468171 -10.25910714 -3.78998863 0 0 Z " fill="#FAB67F" transform="translate(118.9375,96.0625)"/>
<path d="M0 0 C2.8077773 2.8077773 4.61215429 5.31739155 6.5625 8.75 C8.21805291 11.34130021 9.17337252 11.90159574 12 13 C16.23473286 13.22366547 19.89343324 12.7862448 23.375 10.3125 C25.12413212 7.9448874 25.12413212 7.9448874 26.5625 4.875 C28 2 28 2 31 0 C34.36187193 0.18010028 36.99918142 0.41887954 39.9375 2.125 C41.72639063 5.28186582 41.46227151 7.4173958 41 11 C37.83618348 18.89602072 33.06430904 23.78003006 25.3125 27.3125 C17.86130027 30.03827621 11.05662372 30.26583939 3.75 27 C-2.09133879 23.7258738 -6.17726821 19.24921753 -9.4375 13.4375 C-10.20322056 10.11937758 -10.37014589 7.39300396 -10 4 C-7.2869004 -0.06964941 -4.77707618 -0.97491351 0 0 Z " fill="#050403" transform="translate(215,251)"/>
<path d="M0 0 C6.13740608 2.50533423 9.19926437 8.92145974 11.8125 14.75 C15.38923239 24.5389518 14.76498757 35.078574 12 45 C11.67 45.66 11.34 46.32 11 47 C2.83556624 46.79065554 -2.93065252 40.33029661 -8.25 34.75 C-14.52486338 27.38548969 -17.52760666 19.60533125 -18 10 C-16.68 9.67 -15.36 9.34 -14 9 C-13.319375 9.969375 -12.63875 10.93875 -11.9375 11.9375 C-9.71320066 14.59781257 -8.95220612 15.01509281 -5.4375 16.125 C-2.00041265 16.29185233 -2.00041265 16.29185233 0.4375 14.4375 C2.44505874 11.30570836 2.52365467 9.66558266 2 6 C0.61114752 3.18219466 0.61114752 3.18219466 -1 1 C-0.67 0.67 -0.34 0.34 0 0 Z " fill="#D23235" transform="translate(271,337)"/>
<path d="M0 0 C4.39704421 0.70204908 6.64871128 2.03171571 10 5 C8.40630248 10.18713014 5.15212176 13.89909882 1.8125 18.0625 C0.5439546 19.66669036 -0.7229118 21.27220954 -1.98828125 22.87890625 C-2.64650879 23.71437988 -3.30473633 24.54985352 -3.98291016 25.41064453 C-7.34437935 29.72579126 -10.60785412 34.11326756 -13.875 38.5 C-26.73983816 55.73983816 -26.73983816 55.73983816 -30 59 C-32.80951486 59.29573841 -34.41628976 59.38243085 -36.8125 57.8125 C-38.42399102 55.35285582 -38.28645851 53.90886078 -38 51 C-36.75341797 48.80615234 -36.75341797 48.80615234 -34.9921875 46.5859375 C-34.34185547 45.75175293 -33.69152344 44.91756836 -33.02148438 44.05810547 C-32.31314453 43.17268066 -31.60480469 42.28725586 -30.875 41.375 C-29.40227099 39.49065705 -27.93094507 37.60521676 -26.4609375 35.71875 C-25.71424805 34.76613281 -24.96755859 33.81351563 -24.19824219 32.83203125 C-20.88905509 28.56875156 -17.6884201 24.22896088 -14.5 19.875 C-13.92604492 19.09326416 -13.35208984 18.31152832 -12.76074219 17.50610352 C-8.4899778 11.68329604 -4.23317641 5.85019721 0 0 Z " fill="#DDEFC0" transform="translate(409,123)"/>
<path d="M0 0 C3.97483779 1.36018385 6.63594199 3.13171283 9.75 5.9375 C10.52859375 6.62714844 11.3071875 7.31679688 12.109375 8.02734375 C14 10 14 10 15 13 C14.34 13.66 13.68 14.32 13 15 C12.4431226 20.10470946 13.04716484 23.450836 15 28.1875 C19.13940434 38.90560051 17.45683902 49.62268549 13 60 C9.08147008 67.25841682 2.96234451 75.2041131 -5.26953125 77.68359375 C-5.84058594 77.78800781 -6.41164063 77.89242187 -7 78 C-6.64808594 77.58492188 -6.29617188 77.16984375 -5.93359375 76.7421875 C3.23970279 65.2935302 9.39309173 51.86690077 8 37 C6.01725641 25.30491085 1.81249427 16.34010498 -6.42578125 7.8125 C-8 6 -8 6 -8 4 C-6.865625 3.71125 -5.73125 3.4225 -4.5625 3.125 C-3.386875 2.75375 -2.21125 2.3825 -1 2 C-0.67 1.34 -0.34 0.68 0 0 Z " fill="#E9DCD8" transform="translate(322,53)"/>
<path d="M0 0 C6.27 0 12.54 0 19 0 C19.04513106 9.22270492 19.08184692 18.44533685 19.10362434 27.66812706 C19.11407483 31.95034248 19.12825697 36.23247864 19.15087891 40.51464844 C19.17256238 44.64488126 19.18455909 48.77503769 19.18975449 52.90532303 C19.19345835 54.48343738 19.2006908 56.06154741 19.21146011 57.63962936 C19.22591549 59.84496951 19.22798048 62.04999142 19.22705078 64.25537109 C19.231492 65.51223724 19.23593323 66.76910339 19.24050903 68.0640564 C19 71 19 71 17 73 C14.36 73 11.72 73 9 73 C9.33 49.24 9.66 25.48 10 1 C6.7 1 3.4 1 0 1 C0 0.67 0 0.34 0 0 Z " fill="#5A5454" transform="translate(41,424)"/>
<path d="M0 0 C6.35290221 0.36651359 6.35290221 0.36651359 9.20599365 3.15959167 C11.32483059 6.51429668 11.4861871 8.32053407 11.45410156 12.2590332 C11.45379944 13.49994217 11.45349731 14.74085114 11.45318604 16.0193634 C11.43276278 17.36317596 11.41189885 18.70698189 11.390625 20.05078125 C11.38315866 21.43368205 11.37746758 22.81659348 11.37347412 24.19950867 C11.3582483 27.82802877 11.31899424 31.45590188 11.2746582 35.08416748 C11.23363873 38.79104868 11.21544895 42.49803507 11.1953125 46.20507812 C11.15249579 53.47034609 11.084283 60.73508217 11 68 C8.03 68 5.06 68 2 68 C1.9845388 66.81062836 1.9845388 66.81062836 1.96876526 65.597229 C1.87076356 58.12260033 1.76824531 50.64805368 1.66066074 43.17355728 C1.60551043 39.33090281 1.5521032 35.48824062 1.50268555 31.64550781 C1.4549254 27.93665809 1.40257864 24.22789881 1.34705925 20.51915741 C1.32668841 19.1046143 1.30796675 17.69004644 1.29092598 16.27545929 C1.26676528 14.29328191 1.23618277 12.31118596 1.20532227 10.32910156 C1.18977798 9.20103088 1.1742337 8.07296021 1.15821838 6.91070557 C1.02374524 4.43683547 0.71640172 2.35938887 0 0 Z " fill="#AC5E33" transform="translate(408,250)"/>
<path d="M0 0 C4.11051543 0.58721649 5.00987052 1.26615274 7.5 4.5 C8.00170898 7.36914062 8.00170898 7.36914062 7.99609375 10.65625 C7.99673828 11.84347656 7.99738281 13.03070313 7.99804688 14.25390625 C7.97806641 15.49011719 7.95808594 16.72632813 7.9375 18 C7.94458984 19.23621094 7.95167969 20.47242188 7.95898438 21.74609375 C7.88577966 32.11863849 7.88577966 32.11863849 4.5 35.5 C1.125 36.5625 1.125 36.5625 -2.5 36.5 C-5.17252313 34.85537038 -6.0868042 34.2002134 -7.5 31.5 C-8.22834023 26.96976988 -8.15142147 22.51575391 -8.0625 17.9375 C-8.07345703 16.70580078 -8.08441406 15.47410156 -8.09570312 14.20507812 C-8.0218918 5.17549253 -8.0218918 5.17549253 -5.68334961 2.14868164 C-3.5 0.5 -3.5 0.5 0 0 Z " fill="#020101" transform="translate(431.5,419.5)"/>
<path d="M0 0 C2.81917403 1.31066863 5.0957568 2.78864371 7.5 4.75 C20.94698722 14.97270961 34.64953117 17.44992622 51 18 C50.875 19.8125 50.875 19.8125 50 22 C43.6694043 26.11768835 37.28650946 25.6913639 30 25 C19.46596834 22.7427075 7.24273925 17.21091283 1 8 C0.17947248 5.18746893 0.05202933 2.96567175 0 0 Z " fill="#DD4245" transform="translate(78,117)"/>
<path d="M0 0 C12.56371142 2.104915 22.31266015 12.05977362 29.66015625 21.9140625 C31.31662046 24.49293097 32.31152442 27.0166058 33 30 C29.7 30 26.4 30 23 30 C22.59910156 29.17757813 22.19820313 28.35515625 21.78515625 27.5078125 C16.28372798 16.70455427 9.34526763 8.75458378 0 1 C0 0.67 0 0.34 0 0 Z " fill="#EADED9" transform="translate(322,288)"/>
<path d="M0 0 C4.75 0.75 4.75 0.75 7 3 C7.22705078 4.87939453 7.22705078 4.87939453 7.1953125 7.1328125 C7.18564453 8.34130859 7.18564453 8.34130859 7.17578125 9.57421875 C7.15902344 10.41597656 7.14226562 11.25773438 7.125 12.125 C7.11597656 12.97449219 7.10695312 13.82398438 7.09765625 14.69921875 C7.07405647 16.79959884 7.03818483 18.89983444 7 21 C0.3671875 20.3203125 0.3671875 20.3203125 -2.9375 17.4375 C-5.1591723 14.35963505 -5.72504668 11.73414239 -5.5078125 7.96875 C-4.6055542 4.47076398 -2.52227532 2.52227532 0 0 Z " fill="#F7B685" transform="translate(144,198)"/>
<path d="M0 0 C3.50774678 1.36887679 4.68665562 2.73464126 6.5625 6 C7.22838072 10.66116501 7.30221448 13.57749595 4.5 17.4375 C1.04439131 20.45196715 -0.97512625 20.54272495 -5.4375 21 C-5.51836376 18.06195004 -5.5779283 15.12611925 -5.625 12.1875 C-5.65013672 11.35412109 -5.67527344 10.52074219 -5.70117188 9.66210938 C-5.71083984 8.85966797 -5.72050781 8.05722656 -5.73046875 7.23046875 C-5.7461792 6.49207764 -5.76188965 5.75368652 -5.77807617 4.99291992 C-5.17993043 1.49280259 -3.51016279 0 0 0 Z " fill="#F7B686" transform="translate(315.4375,198)"/>
<path d="M0 0 C1.9375 1.125 1.9375 1.125 3 3 C3.5 6.4375 3.5 6.4375 3 10 C0.9375 12.5 0.9375 12.5 -2 14 C-5.80284671 14 -8.01930006 13.7968187 -11 11.375 C-12.46981805 7.88418213 -11.98413921 5.60851044 -11 2 C-7.79952331 -1.93904824 -4.62362797 -1.17692348 0 0 Z " fill="#090808" transform="translate(213,438)"/>
<path d="M0 0 C1.9375 1.125 1.9375 1.125 3 3 C3.5 6.4375 3.5 6.4375 3 10 C0.9375 12.5 0.9375 12.5 -2 14 C-5.80284671 14 -8.01930006 13.7968187 -11 11.375 C-12.46981805 7.88418213 -11.98413921 5.60851044 -11 2 C-7.79952331 -1.93904824 -4.62362797 -1.17692348 0 0 Z " fill="#090909" transform="translate(180,438)"/>
<path d="M0 0 C1.9375 1.125 1.9375 1.125 3 3 C3.5 6.4375 3.5 6.4375 3 10 C0.9375 12.5 0.9375 12.5 -2 14 C-5.80284671 14 -8.01930006 13.7968187 -11 11.375 C-12.46981805 7.88418213 -11.98413921 5.60851044 -11 2 C-7.79952331 -1.93904824 -4.62362797 -1.17692348 0 0 Z " fill="#090909" transform="translate(213,400)"/>
<path d="M0 0 C1.9375 1.125 1.9375 1.125 3 3 C3.5 6.4375 3.5 6.4375 3 10 C0.9375 12.5 0.9375 12.5 -2 14 C-5.80284671 14 -8.01930006 13.7968187 -11 11.375 C-12.46981805 7.88418213 -11.98413921 5.60851044 -11 2 C-7.79952331 -1.93904824 -4.62362797 -1.17692348 0 0 Z " fill="#090909" transform="translate(180,400)"/>
<path d="M0 0 C3.42641601 1.16643949 4.94029949 1.96425523 6.9375 5 C6.87663078 8.46954545 6.5649029 10.91947278 4.8125 13.9375 C1.75297541 15.6712306 -0.63067525 15.42145216 -4.0625 15 C-6.5 13.4375 -6.5 13.4375 -8.0625 11 C-8.625 7.5 -8.625 7.5 -8.0625 4 C-5.42319379 0.89493388 -4.09839632 0 0 0 Z " fill="#0A0807" transform="translate(264.0625,224)"/>
<path d="M0 0 C0 6.93 0 13.86 0 21 C-6 24 -6 24 -8 24 C-8 16.41 -8 8.82 -8 1 C-6 0 -6 0 0 0 Z " fill="#EBDED9" transform="translate(300,170)"/>
<path d="M0 0 C2.6923481 2.18753283 2.93936827 3.58423955 3.4375 7 C3 10 3 10 1.4375 12.375 C-1.95870843 14.63913895 -4.00099302 14.64269755 -8 14 C-10.69500656 11.58140437 -11.80636871 9.99236035 -12.5 6.4375 C-11.06550643 -0.55565616 -6.06105588 -0.76965789 0 0 Z " fill="#070605" transform="translate(202,225)"/>
<path d="M0 0 C0 4.95 0 9.9 0 15 C-2.64 15 -5.28 15 -8 15 C-8 10.71 -8 6.42 -8 2 C-3 0 -3 0 0 0 Z " fill="#EDE0DB" transform="translate(300,140)"/>
</svg>
